<svg id="Title" xmlns="http://www.w3.org/2000/svg" width="1920" height="1080" viewBox="0 0 1920 1080"><defs><style>.cls-1{fill:#19315b;}.cls-2{fill:#285443;}.cls-3{fill:gray;}.cls-4{fill:#878787;}.cls-5,.cls-6{font-size:175px;letter-spacing:0.13em;}.cls-5{fill:#999;}.cls-14,.cls-15,.cls-16,.cls-17,.cls-18,.cls-5,.cls-6{font-family:Courgette-Regular, Courgette;}.cls-6{fill:#ccc;}.cls-7{fill:#b3b3b3;}.cls-8{fill:#666;}.cls-9{fill:#2e5a9a;}.cls-10{fill:#286199;}.cls-11{fill:#602568;}.cls-12{fill:#361d0b;}.cls-13{fill:#654a7c;}.cls-14,.cls-15,.cls-16,.cls-17,.cls-18{opacity:0.9;fill:#bdccd4;}.cls-14{font-size:80px;}.cls-14,.cls-15{letter-spacing:0.03em;}.cls-15{font-size:60px;}.cls-16{font-size:48px;}.cls-16,.cls-18{letter-spacing:0.03em;}.cls-17{font-size:36px;letter-spacing:0.02em;}.cls-18{font-size:24px;}.cls-19{fill:#003c37;}.cls-20{fill:#9b4100;}</style></defs><title>background_title</title><g id="Background"><rect class="cls-1" width="1920" height="1080"/><path class="cls-2" d="M1152.83,626.77,962,596c-163.87-26.4-432-26.4-595.9,0L0,655v425H1328V832.43C1328,734.85,1249.17,642.3,1152.83,626.77Z"/><path class="cls-2" d="M1112,680s239-89,342-106c39.7-6.55,193,3.14,267,23,111.67,30,199,83,199,83v400H1112Z"/></g><g id="Title-2" data-name="Title"><circle class="cls-3" cx="886.69" cy="143.31" r="107.31"/><circle class="cls-4" cx="890.49" cy="147.11" r="20.83"/><circle class="cls-4" cx="917.33" cy="83.67" r="14.84"/><circle class="cls-4" cx="847.57" cy="95.98" r="27.15"/><circle class="cls-4" cx="819.35" cy="171.74" r="15.35"/><circle class="cls-4" cx="952.9" cy="132.92" r="9.37"/><circle class="cls-4" cx="874.07" cy="212.78" r="20.83"/><circle class="cls-4" cx="952.9" cy="179.43" r="14.84"/><text class="cls-5" transform="translate(296.99 212.69)">Sweet Dreams</text><text class="cls-5" transform="translate(298.99 208.84)">Sweet Dreams</text><text class="cls-6" transform="translate(301.99 203.07)">Sweet Dreams</text></g><g id="Elephant"><g id="Ears"><path class="cls-7" d="M530,334.25c-66.14,9.71-116,87-111.42,172.69a192.48,192.48,0,0,0,6.17,39.43,76.55,76.55,0,0,1-1.88,46.3c-13.66,37.56,1.25,83.61,42,116.27,54.1,43.4,133.26,46.71,176.8,7.38,32.22-29.1,35.91-73.38,13.73-112a74.69,74.69,0,0,1-6.36-60.67,201.55,201.55,0,0,0,9.09-71.85C653.54,386.11,596.19,324.54,530,334.25Z"/><path class="cls-7" d="M377,598a49.68,49.68,0,0,1-15.78-31.19,190.74,190.74,0,0,0-11.13-45.45c-30.25-80.27-107-131-171.49-113.26s-92.19,97.16-61.94,177.44a200.55,200.55,0,0,0,43.32,68.7c11.45,11.82,16.47,27.49,13.67,43.33-8.44,47.62,12.75,90.72,56.48,105.23,55.68,18.48,126.82-16.39,158.89-77.89C414.14,676.64,407.77,626.34,377,598Z"/></g><g id="Trunk"><path class="cls-7" d="M189.83,884.29l-10.55-69.18a6,6,0,0,1,7.61-6.59c20.4,6.26,124.7,15.69,170.17-25.3,40.65-36.65,10.89-146.37,14.08-147l89.93-19.4.13.6c13.06,62.21,39.76,138.71-28.35,215.31-46.18,51.94-172.48,77.84-243.54,51.83"/></g><g id="Head"><circle class="cls-7" cx="391.57" cy="548.61" r="181.5"/></g><path class="cls-8" d="M372.61,533.43l-3.21-2.94c-14.34-13.15-30.58-18.42-45.63-14.85-15.54,3.68-28.11,16.24-35.38,35.35l-5.61-2.13c8-21,22.07-34.91,39.61-39.06,17.06-4,35.21,1.73,51.06,16.26l3.21,3Z"/><path class="cls-8" d="M496.9,507.32l-3.21-2.94c-14.35-13.15-30.58-18.42-45.63-14.85-15.55,3.68-28.11,16.24-35.39,35.36l-5.61-2.14c8-21,22.08-34.91,39.61-39.06,17.09-4,35.22,1.73,51.07,16.27L501,502.9Z"/><path class="cls-8" d="M459.71,694c-.2,0-20.56-4.11-42.07.41-29.39,6.17-46.43,18.1-46.6,18.22l-3.47-4.9c.73-.52,18.24-12.77,48.83-19.2a121,121,0,0,1,44.52-.41Z"/><path class="cls-8" d="M459.44,722.56c-.17,0-18-4.58-36.56-.68-25.43,5.34-39.94,16.67-40.09,16.78l-3.72-4.7c.63-.5,15.77-12.33,42.58-18,20-4.2,38.53.55,39.31.75Z"/><path class="cls-8" d="M394.57,764.7l-4-4.44c.54-.49,13.31-11.91,36.35-16.75,17.24-3.62,33.47,1.71,34.15,1.94l-1.91,5.69c-.15,0-15.4-5-31-1.76C406.78,753.87,394.69,764.59,394.57,764.7Z"/></g><g id="House"><path class="cls-9" d="M1810.37,701.87l-150.46,81.58V449L1819,392V687.38A16.47,16.47,0,0,1,1810.37,701.87Z"/><path class="cls-10" d="M1659.89,449,1476.45,307,1299.54,443.94a16.83,16.83,0,0,0-6.54,13.33V767.5a16.5,16.5,0,0,0,16.5,16.5h350.41V449Z"/><path class="cls-8" d="M1819,392l-159.09,57L1476,307l195.84-16.48a16.69,16.69,0,0,1,11.17,3.1Z"/></g><g id="Details"><path class="cls-11" d="M1338.67,576h77.83a16.5,16.5,0,0,1,16.5,16.5V784a0,0,0,0,1,0,0H1322a0,0,0,0,1,0,0V592.67A16.67,16.67,0,0,1,1338.67,576Z"/><rect class="cls-12" x="1476" y="476" width="150" height="193" rx="16.5" ry="16.5"/><path class="cls-13" d="M1502.12,488H1545a0,0,0,0,1,0,0v80a0,0,0,0,1,0,0h-59a0,0,0,0,1,0,0V504.13A16.12,16.12,0,0,1,1502.12,488Z"/><path class="cls-13" d="M1553,488h42.38A16.63,16.63,0,0,1,1612,504.63V568a0,0,0,0,1,0,0h-59a0,0,0,0,1,0,0V488A0,0,0,0,1,1553,488Z"/><path class="cls-13" d="M1486,578h59a0,0,0,0,1,0,0v81.91a0,0,0,0,1,0,0h-42.79A16.21,16.21,0,0,1,1486,643.71V578A0,0,0,0,1,1486,578Z"/><path class="cls-13" d="M1553,578h59a0,0,0,0,1,0,0v65.58a16.33,16.33,0,0,1-16.33,16.33H1553a0,0,0,0,1,0,0V578A0,0,0,0,1,1553,578Z"/></g><g id="zzzzz"><text class="cls-14" transform="translate(1620.75 457.98)">Z</text><text class="cls-15" transform="translate(1678.76 413.52)">Z</text><text class="cls-16" transform="translate(1727.77 376.64)">Z</text><text class="cls-17" transform="translate(1767.78 353.76)">Z</text><text class="cls-18" transform="translate(1794.29 324.88)">Z</text><text class="cls-18" transform="translate(1813.29 329.88)">Z</text><text class="cls-18" transform="translate(1798.29 349.88)">Z</text></g><g id="Lamp"><polygon class="cls-19" points="1601 630 1564 630 1575.75 599 1589.25 599 1601 630"/><path class="cls-20" d="M1587,660h-9V630h9a37.94,37.94,0,0,1,.65,28.26Z"/><path class="cls-20" d="M1578,660h9V630h-9a37.94,37.94,0,0,0-.65,28.26Z"/></g></svg>
