<svg xmlns="http://www.w3.org/2000/svg" width="420" height="120" viewBox="0 0 420 120"><defs><style>.cls-1{fill:#75634e;}.cls-2,.cls-3{fill:#d8c5b2;}.cls-3{font-size:70.4px;font-family:Courgette-Regular, Courgette;letter-spacing:0.02em;}</style></defs><title>button_back</title><g id="Buttons"><g id="Back"><rect class="cls-1" x="2.06" y="4.59" width="415.88" height="110.81" rx="45.84" ry="45.84"/><path class="cls-2" d="M372.1,6.09a44.39,44.39,0,0,1,44.34,44.34V69.57a44.39,44.39,0,0,1-44.34,44.34H47.9A44.39,44.39,0,0,1,3.56,69.57V50.43A44.39,44.39,0,0,1,47.9,6.09H372.1m0-3H47.9A47.48,47.48,0,0,0,.56,50.43V69.57A47.48,47.48,0,0,0,47.9,116.91H372.1a47.48,47.48,0,0,0,47.34-47.34V50.43A47.48,47.48,0,0,0,372.1,3.09Z"/><text class="cls-3" transform="translate(140.53 84.04)">Back</text><path id="Back-2" data-name="Back" class="cls-2" d="M111.6,48.88c-2.24-.62-32.58.62-32.58.62-.08-7.06-.24-12.91-.49-14.8-.73-5.5-2.91-5.61-4.75-4.53S56.37,49.53,53.87,54.93c-1.54,3.31-1.56,5.47,0,9C55.72,68.24,71,86.66,73.78,88.74s4,.53,4.75-4.53c.25-1.77.42-7.67.49-14.83,0,0,31.14,1.24,33.22,0,1.31-.78,1.6-1.87,1.92-3.73s.16-9.31,0-12.42S112.88,49.24,111.6,48.88Z"/></g></g></svg>
