<svg xmlns="http://www.w3.org/2000/svg" width="303.07" height="229.26" viewBox="0 0 303.07 229.26"><defs><style>.cls-1{fill:#f2f2f2;}.cls-2{opacity:0.75;}.cls-3{fill:gray;}.cls-4{fill:#00002b;}.cls-5{fill:#eaf2f2;}.cls-6{fill:#4d4d4d;}.cls-7{fill:#534741;}</style></defs><title>life</title><g id="Dreams"><ellipse class="cls-1" cx="163.5" cy="114.63" rx="87.16" ry="68.24"/><ellipse class="cls-1" cx="100.26" cy="46.39" rx="50.13" ry="39.25"/><ellipse class="cls-1" cx="50.13" cy="99.02" rx="50.13" ry="39.25"/><ellipse class="cls-1" cx="67.22" cy="158.79" rx="50.13" ry="39.25"/><ellipse class="cls-1" cx="126.47" cy="190.01" rx="50.13" ry="39.25"/><ellipse class="cls-1" cx="214.2" cy="186.44" rx="50.13" ry="39.25"/><ellipse class="cls-1" cx="190.27" cy="39.25" rx="50.13" ry="39.25"/><ellipse class="cls-1" cx="252.94" cy="79.4" rx="50.13" ry="39.25"/><ellipse class="cls-1" cx="252.94" cy="145.41" rx="50.13" ry="39.25"/><g class="cls-2"><circle class="cls-3" cx="155.36" cy="123.92" r="56.58"/><circle class="cls-3" cx="210.55" cy="99.83" r="41.33"/><circle class="cls-3" cx="99.72" cy="99.83" r="41.33"/><circle class="cls-4" cx="135.71" cy="119.49" r="14.82"/><circle class="cls-5" cx="138.84" cy="116.36" r="7.74"/><circle class="cls-5" cx="128.47" cy="126.41" r="2.96"/><circle class="cls-4" cx="173.9" cy="119.49" r="14.82"/><circle class="cls-5" cx="176.04" cy="116.36" r="7.74"/><circle class="cls-5" cx="167.32" cy="126.41" r="2.96"/><path class="cls-6" d="M161.57,156.28h0a8.07,8.07,0,0,0-7-12.1h0a8.07,8.07,0,0,0-7,12.1h0A8.06,8.06,0,0,0,161.57,156.28Z"/><path class="cls-7" d="M169.13,147.83l-1-1.25a92.12,92.12,0,0,1,54.69-20.9h.28l.07,1.63h-.28A91,91,0,0,0,169.13,147.83Z"/><path class="cls-7" d="M169.1,151.68l-.68-1.48a92,92,0,0,1,58.2-6.32l.27.06-.35,1.59-.27-.06A91,91,0,0,0,169.1,151.68Z"/><path class="cls-7" d="M227.26,162.73l-.25-.12a91,91,0,0,0-57-7.85l-.3-1.6a92,92,0,0,1,58,8l.24.12Z"/><path class="cls-7" d="M140,147.83a91,91,0,0,0-53.72-20.52H86l.07-1.63h.27a92.12,92.12,0,0,1,54.69,20.9Z"/><path class="cls-7" d="M140.06,151.68a91,91,0,0,0-57.17-6.21l-.27.06-.35-1.59.27-.06a92,92,0,0,1,58.2,6.32Z"/><path class="cls-7" d="M81.9,162.73l-.72-1.46.24-.12a92,92,0,0,1,58-8l-.3,1.6a91,91,0,0,0-57,7.85Z"/><path class="cls-7" d="M126.26,78.73A35.53,35.53,0,0,0,83.21,68.42l-1.72.81-.69-1.47,1.71-.82a37,37,0,0,1,45,10.79Z"/><path class="cls-7" d="M184.46,78.73l-1.29-1a37,37,0,0,1,45-10.79l1.72.82-.7,1.47-1.71-.81A35.55,35.55,0,0,0,184.46,78.73Z"/></g></g></svg>
