<svg xmlns="http://www.w3.org/2000/svg" width="303.07" height="229.26" viewBox="0 0 303.07 229.26"><defs><style>.cls-1{fill:#f2f2f2;}.cls-2{opacity:0.75;}.cls-3{fill:gray;}.cls-4{fill:#00002b;}.cls-5{fill:#eaf2f2;}.cls-6{fill:#4d4d4d;}.cls-7{fill:#534741;}</style></defs><title>mouse</title><g id="Dreams"><ellipse class="cls-1" cx="163.5" cy="114.63" rx="87.16" ry="68.24"/><ellipse class="cls-1" cx="100.26" cy="46.39" rx="50.13" ry="39.25"/><ellipse class="cls-1" cx="50.13" cy="99.02" rx="50.13" ry="39.25"/><ellipse class="cls-1" cx="67.22" cy="158.79" rx="50.13" ry="39.25"/><ellipse class="cls-1" cx="126.47" cy="190.01" rx="50.13" ry="39.25"/><ellipse class="cls-1" cx="214.2" cy="186.44" rx="50.13" ry="39.25"/><ellipse class="cls-1" cx="190.27" cy="39.25" rx="50.13" ry="39.25"/><ellipse class="cls-1" cx="252.94" cy="79.4" rx="50.13" ry="39.25"/><ellipse class="cls-1" cx="252.94" cy="145.41" rx="50.13" ry="39.25"/><g class="cls-2"><circle class="cls-3" cx="155.34" cy="123.4" r="49.87"/><circle class="cls-3" cx="203.98" cy="102.16" r="36.43"/><circle class="cls-3" cx="106.29" cy="102.16" r="36.43"/><circle class="cls-4" cx="138.02" cy="119.49" r="13.06"/><circle class="cls-5" cx="140.77" cy="116.74" r="6.82"/><circle class="cls-5" cx="131.63" cy="125.59" r="2.61"/><circle class="cls-4" cx="171.68" cy="119.49" r="13.06"/><circle class="cls-5" cx="173.56" cy="116.74" r="6.82"/><circle class="cls-5" cx="165.87" cy="125.59" r="2.61"/><path class="cls-6" d="M160.81,151.92h0a7.12,7.12,0,0,0-6.17-10.67h0a7.12,7.12,0,0,0-6.16,10.67h0A7.12,7.12,0,0,0,160.81,151.92Z"/><path class="cls-7" d="M167.47,144.47l-.91-1.11A81.13,81.13,0,0,1,214.76,125H215l.06,1.43h-.24A80.25,80.25,0,0,0,167.47,144.47Z"/><path class="cls-7" d="M167.44,147.86l-.6-1.3a81.18,81.18,0,0,1,51.3-5.57l.24,0-.31,1.4-.23-.05A80.26,80.26,0,0,0,167.44,147.86Z"/><path class="cls-7" d="M218.71,157.6l-.22-.1a80.19,80.19,0,0,0-50.22-6.92l-.26-1.41a81.19,81.19,0,0,1,51.12,7l.21.11Z"/><path class="cls-7" d="M141.82,144.47a80.25,80.25,0,0,0-47.35-18.09h-.24l0-1.43h.25a81.13,81.13,0,0,1,48.2,18.41Z"/><path class="cls-7" d="M141.85,147.86a80.26,80.26,0,0,0-50.4-5.47l-.23.05-.31-1.4.24,0a81.18,81.18,0,0,1,51.3,5.57Z"/><path class="cls-7" d="M90.58,157.6,90,156.32l.21-.11a81.19,81.19,0,0,1,51.12-7l-.26,1.41A80.19,80.19,0,0,0,90.8,157.5Z"/><path class="cls-7" d="M129.69,83.56a31.34,31.34,0,0,0-37.95-9.09l-1.51.72-.62-1.3,1.52-.72a32.57,32.57,0,0,1,39.69,9.52Z"/><path class="cls-7" d="M181,83.56l-1.14-.87a32.57,32.57,0,0,1,39.7-9.52l1.51.72-.61,1.3-1.52-.72A31.33,31.33,0,0,0,181,83.56Z"/></g></g></svg>
